<svg viewBox="0 0 200 200" width="200" height="200" xmlns="http://www.w3.org/2000/svg"
  xmlns:xlink="http://www.w3.org/1999/xlink">
  <g className="swallow" transform="translateX(200px) scale(-1, 1)" stroke="#000000" fill="none" stroke-width="4">
    <path
      d="M17.9982589,41.3276416 C16.1110577,42.8813064 14.9600499,45.1338934 14.5452355,48.0854026 C14.1304212,51.0369118 14.4994006,54.1087806 15.6521739,57.301009"
      id="路径-2"></path>
    <ellipse className="eye" cx="29.1304348" cy="52.4663677" rx="3.91304348" ry="4.03587444" fill="#000000"></ellipse>
    <path
      d="M122.863892,85.4366812 L118.01542,97.0537127 L133.185508,104.992922 L138.983452,91.714546 L199.914501,103.596507 C181.399052,100.339604 167.509009,97.6227256 158.244373,95.4458709 C148.979737,93.2690162 137.186243,89.5295283 122.863892,84.2274071 C115.368642,80.2047694 110.131738,76.9878955 107.153179,74.5767853 C104.17462,72.1656752 100.546321,68.3635688 96.2682809,63.1704661 C94.1687655,57.9335928 93.1869747,53.9424406 93.3229086,51.1970095 C93.4588424,48.4515784 94.4406332,45.1617891 96.2682809,41.3276416 C99.2005841,35.9234396 101.920881,32.0242502 104.429172,29.6300734 C106.937462,27.2358966 110.843673,24.4599709 116.147804,21.3022961 C128.322086,15.5609663 137.860846,11.5205288 144.764083,9.18098378 C151.66732,6.84143873 162.681147,3.9164919 177.805562,0.406143295 L107.153179,4.90174452 C97.8495558,5.87686946 91.2059375,6.99447599 87.2223242,8.25456409 C83.2387109,9.5146522 78.1025557,12.4839094 71.8138587,17.1623358 C67.6647192,23.0481993 64.3639719,27.5371139 61.9116168,30.6290797 C60.0998016,32.9134431 58.7293169,35.8299107 55.5289262,38.3071331 C54.7746262,38.8909896 52.2113968,39.0724855 47.8392379,38.8516208 L42.3478214,37.8883547 L37.9225468,36.4767971 C35.7763665,35.7662927 34.2059712,35.2709253 33.2113609,34.9906949 C31.7194454,34.5703492 31.0177017,34.5703492 28.0606367,34.9906949 C25.1035717,35.4110405 22.7838994,37.5005389 21.3506949,38.3071331 C20.5006749,38.7855165 19.3831962,39.7923527 17.9982589,41.3276416 L0.844983076,44.8910446 C6.90076582,49.9454502 11.4126326,54.082105 14.3805835,57.301009 C15.0859496,58.0660167 15.2201024,58.7668649 15.6146561,59.3777981 C17.7103328,62.622777 16.797393,64.1074138 22.6867695,68.5796484 C26.9019007,71.780506 28.4775426,72.3090622 32.2536815,75.3445747 C32.4206491,75.4787944 33.8383985,76.7720798 34.4750457,77.6498362 C34.8994772,78.2350071 35.2681443,78.8929062 35.5810471,79.6235335 C36.6486849,81.2637114 36.1043354,85.294049 33.9479988,91.714546 C31.7916621,98.135043 31.1231734,104.214546 31.9425328,109.953055 C32.5243575,117.724035 37.8232592,128.563441 47.8392379,142.471272 C57.8552165,156.379104 73.5981155,175.32646 95.0679348,199.313341 C86.9248419,183.575767 81.1847692,171.653247 77.8477165,163.545781 C74.5106638,155.438315 70.9071838,143.775137 67.0372766,128.556247 C66.4701446,121.475665 66.4701446,116.319972 67.0372766,113.089168 C67.6044085,109.858364 69.1966025,105.943739 71.8138587,101.345291 C74.2236161,97.8390986 76.9629289,95.4505116 80.0317971,94.1795306 C83.1006653,92.9085496 88.1127112,92.0868881 95.0679348,91.714546 C102.382599,93.4524508 109.409222,95.5509212 116.147804,98.0099573 C122.886386,100.468993 132.038463,105.127163 143.604037,111.984467 C152.446475,117.892083 160.047116,123.045061 166.40596,127.443399 C172.764804,131.841737 180.459816,137.375899 189.490994,144.045883"
      id="路径"></path>
  </g>
</svg>
